# xmcd
#
# Track frame offsets:
#	150
#	18643
#	40065
#	59416
#	78666
#	99550
#	122230
#	142626
#	159060
#	176860
#	193780
#	211719
#	230828
#	247860
#	266197
#	287157
#	302386
#
# Disc length: 4243 seconds
#
# Revision: 1
# Processed by: cddbd v1.5.2PL0 Copyright (c) Steve Scherf et al.
# Submitted via: audiograbber 1.83.01
#
DISCID=e9109111
DTITLE=Tim McGraw - 35 Biggest Hits CD2
DYEAR=2015
DGENRE=Country
TTITLE0=The Cowboy In Me
TTITLE1=Red Ragtop
TTITLE2=She's My Kind Of Rain
TTITLE3=Real Good Man
TTITLE4=Watch The Wind Blow By
TTITLE5=Live Like You Were Dying
TTITLE6=Back When
TTITLE7=My Old Friend
TTITLE8=When The Stars Go Blue
TTITLE9=My Little Girl (from the motion picture My Friend Flicka)
TTITLE10=Last Dollar (Fly Away)
TTITLE11=If You're Reading This
TTITLE12=Let It Go
TTITLE13=Southern Voice
TTITLE14=Felt Good On My Lips
TTITLE15=Better Than I Used To Be
TTITLE16=Just When I Need You Most (Live)
EXTD=
EXTT0=
EXTT1=
EXTT2=
EXTT3=
EXTT4=
EXTT5=
EXTT6=
EXTT7=
EXTT8=
EXTT9=
EXTT10=
EXTT11=
EXTT12=
EXTT13=
EXTT14=
EXTT15=
EXTT16=
PLAYORDER=
